<svg width="94" height="11" viewBox="0 0 94 11" fill="none" xmlns="http://www.w3.org/2000/svg">
<path d="M4.01801 0.699999C4.75534 0.699999 5.43201 0.821333 6.04801 1.064C6.66401 1.30667 7.19601 1.64733 7.64401 2.086C8.10134 2.52467 8.45601 3.04267 8.70801 3.64C8.96001 4.23733 9.08601 4.89067 9.08601 5.6C9.08601 6.30933 8.96001 6.96267 8.70801 7.56C8.45601 8.148 8.10134 8.666 7.64401 9.114C7.18667 9.55267 6.64534 9.89333 6.02001 10.136C5.39467 10.3787 4.71334 10.5 3.97601 10.5H5.72205e-06V0.699999H4.01801ZM4.06001 9.086C4.53601 9.086 4.97467 9.002 5.37601 8.834C5.78667 8.666 6.14134 8.428 6.44001 8.12C6.74801 7.80267 6.98601 7.434 7.15401 7.014C7.33134 6.58467 7.42001 6.118 7.42001 5.614C7.42001 5.10067 7.33134 4.634 7.15401 4.214C6.97667 3.78467 6.73401 3.41133 6.42601 3.094C6.11801 2.77667 5.75401 2.534 5.33401 2.366C4.92334 2.198 4.47534 2.114 3.99001 2.114H1.65201V9.086H4.06001ZM15.9095 6.244C15.8908 5.824 15.7928 5.46933 15.6155 5.18C15.4475 4.88133 15.2095 4.65267 14.9015 4.494C14.5935 4.326 14.2388 4.242 13.8375 4.242C13.3895 4.242 12.9975 4.34467 12.6615 4.55C12.3348 4.75533 12.0781 5.04467 11.8915 5.418C11.7048 5.782 11.6115 6.21133 11.6115 6.706C11.6115 7.238 11.7095 7.7 11.9055 8.092C12.1108 8.484 12.3908 8.78733 12.7455 9.002C13.1095 9.21667 13.5248 9.324 13.9915 9.324C14.8221 9.324 15.5221 9.03 16.0915 8.442L16.9455 9.296C16.5815 9.69733 16.1381 10.01 15.6155 10.234C15.0928 10.4487 14.5095 10.556 13.8655 10.556C13.1001 10.556 12.4328 10.3973 11.8635 10.08C11.2941 9.76267 10.8508 9.324 10.5335 8.764C10.2161 8.19467 10.0575 7.53667 10.0575 6.79C10.0575 6.04333 10.2161 5.39 10.5335 4.83C10.8508 4.26067 11.2941 3.81733 11.8635 3.5C12.4328 3.18267 13.0861 3.01933 13.8235 3.01C14.7008 3.01 15.4055 3.192 15.9375 3.556C16.4695 3.91067 16.8475 4.41467 17.0715 5.068C17.2955 5.72133 17.3748 6.496 17.3095 7.392H11.3595V6.244H15.9095ZM24.2379 5.194C23.9766 4.92333 23.6686 4.71333 23.3139 4.564C22.9593 4.41467 22.5579 4.34 22.1099 4.34C21.6806 4.34 21.2979 4.44267 20.9619 4.648C20.6259 4.85333 20.3646 5.14267 20.1779 5.516C19.9913 5.88 19.8979 6.30467 19.8979 6.79C19.8979 7.27533 19.9913 7.70467 20.1779 8.078C20.3646 8.442 20.6259 8.73133 20.9619 8.946C21.2979 9.15133 21.6806 9.254 22.1099 9.254C22.5766 9.254 22.9966 9.17933 23.3699 9.03C23.7433 8.87133 24.0559 8.64267 24.3079 8.344L25.2039 9.226C24.8679 9.646 24.4293 9.97267 23.8879 10.206C23.3559 10.4393 22.7399 10.556 22.0399 10.556C21.3026 10.556 20.6493 10.3973 20.0799 10.08C19.5199 9.76267 19.0813 9.324 18.7639 8.764C18.4466 8.19467 18.2879 7.53667 18.2879 6.79C18.2879 6.04333 18.4466 5.39 18.7639 4.83C19.0813 4.26067 19.5199 3.81733 20.0799 3.5C20.6493 3.17333 21.3026 3.01 22.0399 3.01C22.7119 3.01 23.3046 3.11267 23.8179 3.318C24.3406 3.514 24.7746 3.794 25.1199 4.158L24.2379 5.194ZM31.7415 6.244C31.7228 5.824 31.6248 5.46933 31.4475 5.18C31.2795 4.88133 31.0415 4.65267 30.7335 4.494C30.4255 4.326 30.0708 4.242 29.6695 4.242C29.2215 4.242 28.8295 4.34467 28.4935 4.55C28.1668 4.75533 27.9102 5.04467 27.7235 5.418C27.5368 5.782 27.4435 6.21133 27.4435 6.706C27.4435 7.238 27.5415 7.7 27.7375 8.092C27.9428 8.484 28.2228 8.78733 28.5775 9.002C28.9415 9.21667 29.3568 9.324 29.8235 9.324C30.6542 9.324 31.3542 9.03 31.9235 8.442L32.7775 9.296C32.4135 9.69733 31.9702 10.01 31.4475 10.234C30.9248 10.4487 30.3415 10.556 29.6975 10.556C28.9322 10.556 28.2648 10.3973 27.6955 10.08C27.1262 9.76267 26.6828 9.324 26.3655 8.764C26.0482 8.19467 25.8895 7.53667 25.8895 6.79C25.8895 6.04333 26.0482 5.39 26.3655 4.83C26.6828 4.26067 27.1262 3.81733 27.6955 3.5C28.2648 3.18267 28.9182 3.01933 29.6555 3.01C30.5328 3.01 31.2375 3.192 31.7695 3.556C32.3015 3.91067 32.6795 4.41467 32.9035 5.068C33.1275 5.72133 33.2068 6.496 33.1415 7.392H27.1915V6.244H31.7415ZM40.336 6.3C40.336 5.72133 40.1773 5.26867 39.86 4.942C39.5426 4.606 39.104 4.438 38.544 4.438C37.8813 4.44733 37.3586 4.68067 36.976 5.138C36.6026 5.59533 36.416 6.16467 36.416 6.846H35.968C35.968 5.922 36.0986 5.18 36.36 4.62C36.6213 4.06 36.99 3.654 37.466 3.402C37.9513 3.14067 38.5206 3.01 39.174 3.01C39.7526 3.01 40.2473 3.12667 40.658 3.36C41.078 3.59333 41.3953 3.92467 41.61 4.354C41.834 4.774 41.946 5.28267 41.946 5.88V10.5H40.336V6.3ZM34.82 3.066H36.43V10.5H34.82V3.066ZM45.9932 8.148C45.9932 8.54933 46.0632 8.82467 46.2032 8.974C46.3432 9.114 46.5392 9.184 46.7912 9.184C46.9592 9.184 47.1318 9.156 47.3092 9.1C47.4958 9.044 47.6965 8.96 47.9112 8.848L48.3172 10.01C48.0278 10.1873 47.7292 10.3273 47.4212 10.43C47.1132 10.5233 46.8005 10.57 46.4832 10.57C46.1098 10.57 45.7645 10.5 45.4472 10.36C45.1298 10.2107 44.8732 9.97733 44.6772 9.66C44.4905 9.34267 44.3972 8.932 44.3972 8.428V1.302H45.9932V8.148ZM43.3472 3.332H48.1912V4.48H43.3472V3.332ZM53.9903 4.466C53.4583 4.438 52.9963 4.53133 52.6043 4.746C52.2217 4.95133 51.923 5.24067 51.7083 5.614C51.503 5.98733 51.4003 6.41667 51.4003 6.902L50.9523 6.846C50.9523 6.01533 51.0737 5.31533 51.3163 4.746C51.559 4.17667 51.909 3.74733 52.3663 3.458C52.8237 3.15933 53.365 3.01 53.9903 3.01V4.466ZM49.8043 3.066H51.4143V10.5H49.8043V3.066ZM57.4493 7.182C56.9267 7.182 56.5393 7.26133 56.2873 7.42C56.0353 7.57867 55.9093 7.84 55.9093 8.204C55.9093 8.54933 56.0353 8.82467 56.2873 9.03C56.5487 9.23533 56.9033 9.338 57.3513 9.338C57.7527 9.338 58.112 9.268 58.4293 9.128C58.7467 8.988 58.9987 8.80133 59.1853 8.568C59.372 8.32533 59.47 8.05467 59.4793 7.756L59.7873 9.114C59.554 9.59933 59.1993 9.96333 58.7233 10.206C58.2473 10.4487 57.678 10.57 57.0153 10.57C56.4833 10.57 56.0213 10.4673 55.6293 10.262C55.2373 10.0567 54.934 9.78133 54.7193 9.436C54.5047 9.08133 54.3973 8.68933 54.3973 8.26C54.3973 7.588 54.64 7.05133 55.1253 6.65C55.62 6.24867 56.3153 6.04333 57.2113 6.034H59.6753V7.182H57.4493ZM59.4653 5.782C59.4653 5.29667 59.316 4.91867 59.0173 4.648C58.7187 4.37733 58.2753 4.242 57.6873 4.242C57.3327 4.242 56.9687 4.30733 56.5953 4.438C56.2313 4.56867 55.8627 4.76 55.4893 5.012L54.8313 3.976C55.1767 3.76133 55.5033 3.584 55.8113 3.444C56.1193 3.304 56.446 3.19667 56.7913 3.122C57.146 3.04733 57.5613 3.01 58.0373 3.01C58.9987 3.01 59.736 3.24333 60.2493 3.71C60.772 4.16733 61.038 4.802 61.0473 5.614L61.0613 10.5H59.4793L59.4653 5.782ZM63.2865 0.111999H64.8965V10.5H63.2865V0.111999ZM67.3454 3.066H68.9414V10.5H67.3454V3.066ZM68.1434 -8.34465e-07C68.414 -8.34465e-07 68.638 0.0886661 68.8154 0.266C68.9927 0.443333 69.0814 0.667333 69.0814 0.938C69.0814 1.19933 68.9927 1.42333 68.8154 1.61C68.638 1.78733 68.414 1.876 68.1434 1.876C67.882 1.876 67.658 1.78733 67.4714 1.61C67.294 1.42333 67.2054 1.19933 67.2054 0.938C67.2054 0.667333 67.294 0.443333 67.4714 0.266C67.658 0.0886661 67.882 -8.34465e-07 68.1434 -8.34465e-07ZM75.5659 4.872C75.2392 4.676 74.8799 4.522 74.4879 4.41C74.1052 4.28867 73.7505 4.228 73.4239 4.228C73.1065 4.228 72.8452 4.28867 72.6399 4.41C72.4345 4.53133 72.3319 4.732 72.3319 5.012C72.3319 5.24533 72.4252 5.432 72.6119 5.572C72.8079 5.70267 73.0552 5.81467 73.3539 5.908C73.6525 6.00133 73.9699 6.09933 74.3059 6.202C74.6419 6.30467 74.9592 6.44 75.2579 6.608C75.5659 6.76667 75.8132 6.986 75.9999 7.266C76.1865 7.546 76.2799 7.91467 76.2799 8.372C76.2799 8.876 76.1445 9.29133 75.8739 9.618C75.6125 9.93533 75.2625 10.1733 74.8239 10.332C74.3945 10.4813 73.9279 10.556 73.4239 10.556C72.8825 10.556 72.3412 10.4673 71.7999 10.29C71.2585 10.1127 70.8012 9.856 70.4279 9.52L71.0019 8.428C71.3285 8.71733 71.7252 8.946 72.1919 9.114C72.6585 9.27267 73.0925 9.352 73.4939 9.352C73.7272 9.352 73.9325 9.324 74.1099 9.268C74.2965 9.20267 74.4412 9.10933 74.5439 8.988C74.6559 8.86667 74.7119 8.708 74.7119 8.512C74.7119 8.25067 74.6185 8.04533 74.4319 7.896C74.2452 7.74667 74.0025 7.62533 73.7039 7.532C73.4052 7.42933 73.0879 7.33133 72.7519 7.238C72.4159 7.13533 72.0985 7.00467 71.7999 6.846C71.5105 6.68733 71.2725 6.47267 71.0859 6.202C70.8992 5.93133 70.8059 5.572 70.8059 5.124C70.8059 4.62 70.9365 4.214 71.1979 3.906C71.4592 3.58867 71.7952 3.36 72.2059 3.22C72.6259 3.07067 73.0739 2.996 73.5499 2.996C74.0165 2.996 74.4832 3.06133 74.9499 3.192C75.4165 3.32267 75.8179 3.50467 76.1539 3.738L75.5659 4.872ZM83.0521 6.244C83.0334 5.824 82.9354 5.46933 82.7581 5.18C82.5901 4.88133 82.3521 4.65267 82.0441 4.494C81.7361 4.326 81.3814 4.242 80.9801 4.242C80.5321 4.242 80.1401 4.34467 79.8041 4.55C79.4774 4.75533 79.2207 5.04467 79.0341 5.418C78.8474 5.782 78.7541 6.21133 78.7541 6.706C78.7541 7.238 78.8521 7.7 79.0481 8.092C79.2534 8.484 79.5334 8.78733 79.8881 9.002C80.2521 9.21667 80.6674 9.324 81.1341 9.324C81.9647 9.324 82.6647 9.03 83.2341 8.442L84.0881 9.296C83.7241 9.69733 83.2807 10.01 82.7581 10.234C82.2354 10.4487 81.6521 10.556 81.0081 10.556C80.2427 10.556 79.5754 10.3973 79.0061 10.08C78.4367 9.76267 77.9934 9.324 77.6761 8.764C77.3587 8.19467 77.2001 7.53667 77.2001 6.79C77.2001 6.04333 77.3587 5.39 77.6761 4.83C77.9934 4.26067 78.4367 3.81733 79.0061 3.5C79.5754 3.18267 80.2287 3.01933 80.9661 3.01C81.8434 3.01 82.5481 3.192 83.0801 3.556C83.6121 3.91067 83.9901 4.41467 84.2141 5.068C84.4381 5.72133 84.5174 6.496 84.4521 7.392H78.5021V6.244H83.0521ZM88.9725 2.996C89.6632 2.996 90.2465 3.15 90.7225 3.458C91.2079 3.75667 91.5765 4.19067 91.8285 4.76C92.0899 5.32 92.2159 5.992 92.2065 6.776C92.2159 7.56 92.0945 8.23667 91.8425 8.806C91.5905 9.37533 91.2219 9.814 90.7365 10.122C90.2605 10.4207 89.6819 10.57 89.0005 10.57C88.2912 10.57 87.6659 10.4113 87.1245 10.094C86.5925 9.76733 86.1772 9.31933 85.8785 8.75C85.5799 8.17133 85.4305 7.50867 85.4305 6.762C85.4305 6.01533 85.5799 5.362 85.8785 4.802C86.1772 4.23267 86.5925 3.78933 87.1245 3.472C87.6565 3.15467 88.2725 2.996 88.9725 2.996ZM89.3365 4.298C88.8885 4.298 88.4919 4.40533 88.1465 4.62C87.8012 4.83467 87.5305 5.13333 87.3345 5.516C87.1479 5.88933 87.0499 6.31867 87.0405 6.804C87.0499 7.28933 87.1479 7.71867 87.3345 8.092C87.5305 8.46533 87.8012 8.75933 88.1465 8.974C88.4919 9.18867 88.8885 9.296 89.3365 9.296C89.7845 9.296 90.1812 9.18867 90.5265 8.974C90.8719 8.75933 91.1379 8.46533 91.3245 8.092C91.5205 7.71867 91.6185 7.28933 91.6185 6.804C91.6185 6.30933 91.5205 5.87533 91.3245 5.502C91.1379 5.12867 90.8719 4.83467 90.5265 4.62C90.1812 4.40533 89.7845 4.298 89.3365 4.298ZM91.6185 0.111999H93.2285V10.5H91.6185V0.111999Z" fill="#9DFF3A"/>
</svg>
